REM DIRINDEX 1\5,1\2\6,1\2\7,1\3\8,1\3\9,1\3\10,1\3\11,1\4\12,1\4\13,1\4\14
REM DIRNAME cjc042,folder01,folder02,folder03,folder04,folder05,folder06,folder07,folder08,folder09,folder10,folder11,folder12,folder13
TITLE ""
FILE "4Q_j_665-672.mp3" MP3
  TRACK 01 AUDIO
    TITLE "8:cjc042_0915"
    INDEX 01 00:00:00
  TRACK 02 AUDIO
    TITLE "0:"
    INDEX 01 00:01:38
  TRACK 03 AUDIO
    TITLE "9:cjc042_0916"
    INDEX 01 00:02:14
  TRACK 04 AUDIO
    TITLE "0:"
    INDEX 01 00:05:38
  TRACK 05 AUDIO
    TITLE "10:cjc042_0917"
    INDEX 01 00:06:12
  TRACK 06 AUDIO
    TITLE "0:"
    INDEX 01 00:09:38
  TRACK 07 AUDIO
    TITLE "11:cjc042_0918"
    INDEX 01 00:10:14
  TRACK 08 AUDIO
    TITLE "0:"
    INDEX 01 00:12:32
  TRACK 09 AUDIO
    TITLE "8:cjc042_0919"
    INDEX 01 00:13:06
  TRACK 10 AUDIO
    TITLE "0:"
    INDEX 01 00:15:01
  TRACK 11 AUDIO
    TITLE "9:cjc042_0920"
    INDEX 01 00:15:50
  TRACK 12 AUDIO
    TITLE "0:"
    INDEX 01 00:17:55
  TRACK 13 AUDIO
    TITLE "10:cjc042_0921"
    INDEX 01 00:18:33
  TRACK 14 AUDIO
    TITLE "0:"
    INDEX 01 00:22:40
  TRACK 15 AUDIO
    TITLE "11:cjc042_0922"
    INDEX 01 00:23:18
  TRACK 16 AUDIO
    TITLE "0:"
    INDEX 01 00:27:00
  TRACK 17 AUDIO
    TITLE "8:cjc042_0923"
    INDEX 01 00:27:49
  TRACK 18 AUDIO
    TITLE "0:"
    INDEX 01 00:29:44
  TRACK 19 AUDIO
    TITLE "9:cjc042_0924"
    INDEX 01 00:30:18
  TRACK 20 AUDIO
    TITLE "0:"
    INDEX 01 00:33:56
  TRACK 21 AUDIO
    TITLE "10:cjc042_0925"
    INDEX 01 00:34:28
  TRACK 22 AUDIO
    TITLE "0:"
    INDEX 01 00:37:42
  TRACK 23 AUDIO
    TITLE "11:cjc042_0926"
    INDEX 01 00:38:14
  TRACK 24 AUDIO
    TITLE "0:"
    INDEX 01 00:41:10
  TRACK 25 AUDIO
    TITLE "8:cjc042_0927"
    INDEX 01 00:41:61
  TRACK 26 AUDIO
    TITLE "0:"
    INDEX 01 00:43:27
  TRACK 27 AUDIO
    TITLE "9:cjc042_0928"
    INDEX 01 00:44:09
  TRACK 28 AUDIO
    TITLE "0:"
    INDEX 01 00:45:26
  TRACK 29 AUDIO
    TITLE "10:cjc042_0929"
    INDEX 01 00:46:04
  TRACK 30 AUDIO
    TITLE "0:"
    INDEX 01 00:49:53
  TRACK 31 AUDIO
    TITLE "11:cjc042_0930"
    INDEX 01 00:50:27
  TRACK 32 AUDIO
    TITLE "0:"
    INDEX 01 00:53:70
  TRACK 33 AUDIO
    TITLE "8:cjc042_0931"
    INDEX 01 00:54:46
  TRACK 34 AUDIO
    TITLE "0:"
    INDEX 01 00:58:56
  TRACK 35 AUDIO
    TITLE "9:cjc042_0932"
    INDEX 01 00:59:36
  TRACK 36 AUDIO
    TITLE "0:"
    INDEX 01 01:02:18
  TRACK 37 AUDIO
    TITLE "10:cjc042_0933"
    INDEX 01 01:02:69
  TRACK 38 AUDIO
    TITLE "0:"
    INDEX 01 01:07:19
  TRACK 39 AUDIO
    TITLE "11:cjc042_0934"
    INDEX 01 01:07:74
  TRACK 40 AUDIO
    TITLE "0:"
    INDEX 01 01:12:62
  TRACK 41 AUDIO
    TITLE "8:cjc042_0935"
    INDEX 01 01:13:40
  TRACK 42 AUDIO
    TITLE "0:"
    INDEX 01 01:15:40
  TRACK 43 AUDIO
    TITLE "9:cjc042_0936"
    INDEX 01 01:16:14
  TRACK 44 AUDIO
    TITLE "0:"
    INDEX 01 01:19:07
  TRACK 45 AUDIO
    TITLE "10:cjc042_0937"
    INDEX 01 01:19:60
  TRACK 46 AUDIO
    TITLE "0:"
    INDEX 01 01:24:14
  TRACK 47 AUDIO
    TITLE "11:cjc042_0938"
    INDEX 01 01:24:67
  TRACK 48 AUDIO
    TITLE "0:"
    INDEX 01 01:28:43
  TRACK 49 AUDIO
    TITLE "8:cjc042_0939"
    INDEX 01 01:29:15
  TRACK 50 AUDIO
    TITLE "0:"
    INDEX 01 01:30:46
  TRACK 51 AUDIO
    TITLE "9:cjc042_0940"
    INDEX 01 01:31:18
  TRACK 52 AUDIO
    TITLE "0:"
    INDEX 01 01:34:10
  TRACK 53 AUDIO
    TITLE "10:cjc042_0941"
    INDEX 01 01:34:63
  TRACK 54 AUDIO
    TITLE "0:"
    INDEX 01 01:37:54
  TRACK 55 AUDIO
    TITLE "11:cjc042_0942"
    INDEX 01 01:38:26
  TRACK 56 AUDIO
    TITLE "0:"
    INDEX 01 01:41:36
  TRACK 57 AUDIO
    TITLE "8:cjc042_0943"
    INDEX 01 01:42:08
  TRACK 58 AUDIO
    TITLE "0:"
    INDEX 01 01:44:09
  TRACK 59 AUDIO
    TITLE "9:cjc042_0944"
    INDEX 01 01:44:60
  TRACK 60 AUDIO
    TITLE "0:"
    INDEX 01 01:45:73
  TRACK 61 AUDIO
    TITLE "10:cjc042_0945"
    INDEX 01 01:46:53
  TRACK 62 AUDIO
    TITLE "0:"
    INDEX 01 01:51:19
  TRACK 63 AUDIO
    TITLE "11:cjc042_0946"
    INDEX 01 01:51:70
  TRACK 64 AUDIO
    TITLE "0:"
    INDEX 01 01:55:30
